<svg width="18" height="18" viewBox="0 0 18 18" fill="none" xmlns="http://www.w3.org/2000/svg">
<g clip-path="url(#clip0_487_17348)">
<path fill-rule="evenodd" clip-rule="evenodd" d="M17.9984 9.20483C17.9992 8.58732 17.9433 7.97099 17.8314 7.36328H9.17969V10.8446H14.1224C14.0199 11.3947 13.8046 11.9187 13.4896 12.385C13.1747 12.8513 12.7666 13.2502 12.29 13.5577V15.8164H15.2575C16.994 14.2496 17.9958 11.9417 17.9958 9.20313L17.9984 9.20483Z" fill="#3E82F1"/>
<path fill-rule="evenodd" clip-rule="evenodd" d="M9.18363 18.0008C11.6632 18.0008 13.7422 17.1953 15.2615 15.821L12.2939 13.5623C11.4712 14.1024 10.4191 14.422 9.18363 14.422C6.79142 14.422 4.7669 12.8382 4.04535 10.7109H0.976562V13.0434C1.74102 14.5342 2.91339 15.7873 4.36269 16.6627C5.81199 17.5381 7.48114 18.0014 9.18363 18.0008Z" fill="#32A753"/>
<path fill-rule="evenodd" clip-rule="evenodd" d="M4.04551 10.7089C3.66137 9.60017 3.66137 8.3982 4.04551 7.28949V4.95703H0.97673C0.334454 6.21152 0 7.59565 0 8.99919C0 10.4027 0.334454 11.7869 0.97673 13.0413L4.04551 10.7089Z" fill="#F9BB00"/>
<path fill-rule="evenodd" clip-rule="evenodd" d="M9.18581 3.5788C10.5346 3.5788 11.745 4.03325 12.6967 4.9252L15.3303 2.34348C13.7401 0.891099 11.6611 6.22621e-07 9.18753 6.22621e-07C7.48504 -0.000619949 5.8159 0.462668 4.3666 1.33811C2.9173 2.21355 1.74492 3.46665 0.980469 4.95742L4.04925 7.28987C4.77081 5.1626 6.79532 3.5788 9.18753 3.5788H9.18581Z" fill="#E74133"/>
</g>
<defs>
<clipPath id="clip0_487_17348">
<rect width="18" height="18" fill="white"/>
</clipPath>
</defs>
</svg>
