<svg width="248" height="48" viewBox="0 0 248 48" fill="none" xmlns="http://www.w3.org/2000/svg">
<path d="M13.68 41.184C5.616 41.184 0 34.992 0 26.448C0 17.904 5.616 11.712 13.68 11.712C17.376 11.712 20.064 13.008 21.744 15.264C21.744 13.6734 23.0334 12.384 24.624 12.384H26.016C28.3754 12.384 30.288 14.2966 30.288 16.656V36.24C30.288 38.5994 28.3754 40.512 26.016 40.512H24.624C23.0334 40.512 21.744 39.2226 21.744 37.632C20.064 39.888 17.376 41.184 13.68 41.184ZM15.024 33.888C19.2 33.888 21.888 30.768 21.888 26.448C21.888 22.128 19.2 19.008 15.024 19.008C10.944 19.008 8.352 22.128 8.352 26.448C8.352 30.768 10.944 33.888 15.024 33.888Z" fill="#F89A05"/>
<path d="M41.0089 0.191998C43.3682 0.191998 45.2809 2.10464 45.2809 4.464V36.24C45.2809 38.5994 43.3682 40.512 41.0089 40.512C38.6495 40.512 36.7369 38.5994 36.7369 36.24V4.46401C36.7369 2.10465 38.6495 0.191998 41.0089 0.191998Z" fill="#F89A05"/>
<path d="M68.298 41.184C64.602 41.184 61.914 39.888 60.234 37.632C60.234 39.2226 58.9446 40.512 57.354 40.512H55.962C53.6026 40.512 51.69 38.5994 51.69 36.24V4.46401C51.69 2.10465 53.6026 0.191998 55.962 0.191998C58.3214 0.191998 60.234 2.10464 60.234 4.464V15.264C61.914 13.008 64.602 11.712 68.298 11.712C76.362 11.712 81.978 17.904 81.978 26.448C81.978 34.992 76.362 41.184 68.298 41.184ZM66.954 33.888C71.034 33.888 73.626 30.768 73.626 26.448C73.626 22.128 71.034 19.008 66.954 19.008C62.778 19.008 60.09 22.128 60.09 26.448C60.09 30.768 62.778 33.888 66.954 33.888Z" fill="#F89A05"/>
<path d="M99.2269 41.184C91.1629 41.184 85.5469 34.992 85.5469 26.448C85.5469 17.904 91.1629 11.712 99.2269 11.712C102.923 11.712 105.611 13.008 107.291 15.264C107.291 13.6734 108.58 12.384 110.171 12.384H111.563C113.922 12.384 115.835 14.2966 115.835 16.656V36.24C115.835 38.5994 113.922 40.512 111.563 40.512H110.171C108.58 40.512 107.291 39.2226 107.291 37.632C105.611 39.888 102.923 41.184 99.2269 41.184ZM100.571 33.888C104.747 33.888 107.435 30.768 107.435 26.448C107.435 22.128 104.747 19.008 100.571 19.008C96.4909 19.008 93.8989 22.128 93.8989 26.448C93.8989 30.768 96.4909 33.888 100.571 33.888Z" fill="#F89A05"/>
<path d="M134.98 12.384C137.008 12.384 138.652 14.028 138.652 16.056C138.652 18.084 137.008 19.728 134.98 19.728H133.276V36.24C133.276 38.5994 131.363 40.512 129.004 40.512C126.644 40.512 124.732 38.5994 124.732 36.24V19.728H123.7C121.672 19.728 120.028 18.084 120.028 16.056C120.028 14.028 121.672 12.384 123.7 12.384H124.732V9.6C124.732 4.08 128.188 0 134.284 0C134.593 0 134.901 0.00443654 135.203 0.0133097C136.93 0.0640156 138.172 1.5441 138.172 3.27217V5.22806C138.172 6.39111 137.127 7.344 135.964 7.344C134.284 7.344 133.276 8.4 133.276 10.08V12.384H134.98Z" fill="#F89A05"/>
<path d="M155.6 11.712C164.288 11.712 170.528 17.904 170.528 26.448C170.528 34.992 164.288 41.184 155.6 41.184C146.912 41.184 140.672 34.992 140.672 26.448C140.672 17.904 146.912 11.712 155.6 11.712ZM155.6 19.008C151.568 19.008 148.928 22.128 148.928 26.448C148.928 30.768 151.568 33.888 155.6 33.888C159.632 33.888 162.272 30.768 162.272 26.448C162.272 22.128 159.632 19.008 155.6 19.008Z" fill="#F89A05"/>
<path d="M179.806 40.512C177.446 40.512 175.534 38.5994 175.534 36.24V16.656C175.534 14.2966 177.446 12.384 179.806 12.384H181.198C182.788 12.384 184.078 13.6734 184.078 15.264C185.758 13.008 188.35 11.712 191.95 11.712C194.167 11.712 195.59 13.7043 195.509 15.9201L195.461 17.2407C195.376 19.5587 193.689 19.1033 191.374 19.248C186.814 19.248 184.078 21.84 184.078 26.112V36.24C184.078 38.5994 182.165 40.512 179.806 40.512Z" fill="#F89A05"/>
<path d="M204.087 40.512C201.728 40.512 199.815 38.5994 199.815 36.24V16.656C199.815 14.2966 201.728 12.384 204.087 12.384H206.294C207.434 12.384 208.359 13.3085 208.359 14.449C208.359 14.6478 208.618 14.7351 208.745 14.5828C210.362 12.6563 212.385 11.712 215.271 11.712C218.823 11.712 221.751 13.152 223.623 15.744C225.735 13.056 228.711 11.712 232.983 11.712C239.463 11.712 243.783 16.416 243.783 24.24V36.24C243.783 38.5994 241.87 40.512 239.511 40.512C237.152 40.512 235.239 38.5994 235.239 36.24V25.68C235.239 21.408 233.607 19.056 230.487 19.056C227.703 19.056 226.215 21.264 226.071 25.248V36.24C226.071 38.5994 224.158 40.512 221.799 40.512C219.44 40.512 217.527 38.5994 217.527 36.24V25.68C217.527 21.408 215.895 19.056 212.775 19.056C209.991 19.056 208.503 21.264 208.359 25.248V36.24C208.359 38.5994 206.446 40.512 204.087 40.512Z" fill="#F89A05"/>
</svg>
